<svg width="19" height="19" viewBox="0 0 19 19" fill="none" xmlns="http://www.w3.org/2000/svg">
<mask id="mask0_286_7" style="mask-type:alpha" maskUnits="userSpaceOnUse" x="0" y="0" width="19" height="19">
<rect x="0.333008" y="0.333008" width="18" height="18" fill="#D9D9D9"/>
</mask>
<g mask="url(#mask0_286_7)">
<path d="M10.008 16.7955C9.89551 16.8205 9.78301 16.833 9.67051 16.833H9.33301C8.29551 16.833 7.32051 16.6361 6.40801 16.2424C5.49551 15.8486 4.70176 15.3143 4.02676 14.6393C3.35176 13.9643 2.81738 13.1705 2.42363 12.258C2.02988 11.3455 1.83301 10.3705 1.83301 9.33301C1.83301 8.29551 2.02988 7.32051 2.42363 6.40801C2.81738 5.49551 3.35176 4.70176 4.02676 4.02676C4.70176 3.35176 5.49551 2.81738 6.40801 2.42363C7.32051 2.02988 8.29551 1.83301 9.33301 1.83301C10.3705 1.83301 11.3455 2.02988 12.258 2.42363C13.1705 2.81738 13.9643 3.35176 14.6393 4.02676C15.3143 4.70176 15.8486 5.49551 16.2424 6.40801C16.6361 7.32051 16.833 8.29551 16.833 9.33301V9.67051C16.833 9.78301 16.8205 9.89551 16.7955 10.008L15.333 9.55801V9.33301C15.333 7.65801 14.7518 6.23926 13.5893 5.07676C12.4268 3.91426 11.008 3.33301 9.33301 3.33301C7.65801 3.33301 6.23926 3.91426 5.07676 5.07676C3.91426 6.23926 3.33301 7.65801 3.33301 9.33301C3.33301 11.008 3.91426 12.4268 5.07676 13.5893C6.23926 14.7518 7.65801 15.333 9.33301 15.333H9.55801L10.008 16.7955ZM15.7268 17.208L12.5205 14.0018L11.583 16.833L9.33301 9.33301L16.833 11.583L14.0018 12.5205L17.208 15.7268L15.7268 17.208Z" fill="#FF3D00"/>
</g>
</svg>
